<svg width="1600" height="1000" viewBox="0 0 1600 1000" fill="none" xmlns="http://www.w3.org/2000/svg" role="img" aria-label="EasyFrame brand showcase">
  <rect width="1600" height="1000" fill="#F8FAFC"/>
  <rect x="1010" width="590" height="1000" fill="#020617"/>
  <text x="72" y="88" fill="#475569" font-family="Manrope, Segoe UI, Arial, sans-serif" font-size="20" font-weight="700" letter-spacing="5">EASYFRAME IDENTITY</text>
  <image href="/brand/easyframe-logo.svg" x="72" y="164" width="500" height="132"/>
  <text x="72" y="386" fill="#475569" font-family="Manrope, Segoe UI, Arial, sans-serif" font-size="16" font-weight="700" letter-spacing="4">ICON</text>
  <image href="/brand/easyframe-app-icon.svg" x="72" y="424" width="180" height="180"/>
  <image href="/brand/easyframe-app-icon.svg" x="292" y="468" width="92" height="92"/>
  <image href="/brand/favicon.svg" x="424" y="482" width="64" height="64"/>
  <text x="72" y="704" fill="#475569" font-family="Manrope, Segoe UI, Arial, sans-serif" font-size="16" font-weight="700" letter-spacing="4">PALETTE</text>
  <rect x="72" y="744" width="118" height="96" rx="18" fill="#4F46E5"/>
  <rect x="214" y="744" width="118" height="96" rx="18" fill="#2563EB"/>
  <rect x="356" y="744" width="118" height="96" rx="18" fill="#7C3AED"/>
  <rect x="498" y="744" width="118" height="96" rx="18" fill="#06B6D4"/>
  <rect x="640" y="744" width="118" height="96" rx="18" fill="#475569"/>
  <text x="1084" y="88" fill="#94A3B8" font-family="Manrope, Segoe UI, Arial, sans-serif" font-size="20" font-weight="700" letter-spacing="5">DARK MODE</text>
  <image href="/brand/easyframe-logo-white.svg" x="1084" y="164" width="440" height="116"/>
  <rect x="1084" y="384" width="360" height="96" rx="24" fill="#FFFFFF"/>
  <image href="/brand/easyframe-logo.svg" x="1112" y="396" width="300" height="78"/>
  <rect x="1084" y="520" width="360" height="96" rx="24" fill="#000000"/>
  <image href="/brand/easyframe-logo-white.svg" x="1112" y="532" width="300" height="78"/>
  <text x="1084" y="704" fill="#94A3B8" font-family="Manrope, Segoe UI, Arial, sans-serif" font-size="16" font-weight="700" letter-spacing="4">CLEARSPACE</text>
  <rect x="1084" y="744" width="220" height="160" rx="4" stroke="#475569" stroke-dasharray="5 6"/>
  <rect x="1124" y="784" width="140" height="80" rx="4" stroke="#64748B"/>
  <image href="/brand/easyframe-mark.svg" x="1160" y="780" width="72" height="72"/>
</svg>
